<svg width="30" height="30" viewBox="0 0 30 30" fill="none" xmlns="http://www.w3.org/2000/svg">
<g id="heart (15) 1" clip-path="url(#clip0_129_5955)">
<path id="Vector" d="M21.75 1.25C19.0625 1.25415 16.5449 2.56494 15 4.76392C13.4551 2.56494 10.9375 1.25415 8.25 1.25C3.85498 1.25 0 5.33911 0 10C0 14.5425 2.56494 19.2209 7.41797 23.53C9.6665 25.5227 12.1331 27.2549 14.7705 28.6941C14.9146 28.7683 15.0854 28.7683 15.2295 28.6941C17.866 27.2549 20.3318 25.5225 22.5796 23.53C27.4351 19.2209 30 14.5425 30 10C30 5.33911 26.145 1.25 21.75 1.25ZM15 27.6814C13.1636 26.668 1 19.5879 1 10C1 5.87158 4.38745 2.25 8.25 2.25C10.8667 2.25464 13.2788 3.66626 14.5645 5.94556C14.6606 6.09253 14.8245 6.18091 15 6.18091C15.1755 6.18091 15.3394 6.09253 15.4355 5.94556C16.7212 3.66626 19.1333 2.25464 21.75 2.25C25.6125 2.25 29 5.87158 29 10C29 19.5879 16.8364 26.668 15 27.6814Z" fill="white"/>
</g>
<defs>
<clipPath id="clip0_129_5955">
<rect width="30" height="30" fill="white"/>
</clipPath>
</defs>
</svg>
