<svg width="30" height="30" viewBox="0 0 30 30" fill="none" xmlns="http://www.w3.org/2000/svg">
<g id="mission 2">
<path id="Vector" d="M15 28.125C17.2607 28.125 19.4832 27.5411 21.4519 26.4297C23.4207 25.3184 25.069 23.7174 26.2371 21.7818C27.4053 19.8462 28.0537 17.6417 28.1194 15.3819C28.1852 13.1221 27.6661 10.8836 26.6125 8.88336C26.5537 8.77451 26.4543 8.69332 26.3359 8.65749C26.2174 8.62166 26.0897 8.63409 25.9804 8.69209C25.8711 8.75009 25.7892 8.84893 25.7525 8.96709C25.7158 9.08524 25.7272 9.21311 25.7844 9.32282C26.7073 11.0728 27.1889 13.0216 27.1875 15C26.5195 31.1658 3.48032 31.166 2.81248 14.9999C2.69959 5.96165 12.7501 -0.0964006 20.6772 4.21571C20.7871 4.27397 20.9156 4.28622 21.0344 4.24975C21.1533 4.21328 21.2528 4.13109 21.3111 4.02125C21.3693 3.91142 21.3816 3.78293 21.3451 3.66407C21.3086 3.5452 21.2265 3.44569 21.1166 3.38743C19.2313 2.39287 17.1316 1.87369 15 1.875C-2.4096 2.59433 -2.4094 27.406 15 28.125Z" fill="white"/>
<path id="Vector_2" d="M15 11.25C15.4059 11.2497 15.809 11.3171 16.1927 11.4494C16.3102 11.4898 16.439 11.482 16.5507 11.4275C16.6624 11.373 16.748 11.2764 16.7885 11.1589C16.9944 10.3297 15.5344 10.3628 15 10.3124C8.78216 10.5694 8.78244 19.4308 15 19.6875C16.2428 19.6861 17.4343 19.1918 18.313 18.313C19.1918 17.4343 19.6861 16.2428 19.6875 15C19.6396 14.4559 19.6713 13.0111 18.8457 13.2163C18.7875 13.2363 18.7338 13.2676 18.6877 13.3084C18.6416 13.3492 18.6039 13.3986 18.577 13.454C18.55 13.5093 18.5342 13.5694 18.5304 13.6309C18.5267 13.6923 18.5351 13.7539 18.5552 13.8121C18.6857 14.1945 18.7515 14.596 18.75 15C18.562 19.9672 11.4379 19.9674 11.25 15C11.2511 14.0058 11.6466 13.0526 12.3496 12.3496C13.0526 11.6466 14.0058 11.2511 15 11.25Z" fill="white"/>
<path id="Vector_3" d="M19.4881 7.84447C19.518 7.79064 19.537 7.73145 19.5439 7.67029C19.5509 7.60913 19.5458 7.5472 19.5288 7.48802C19.5119 7.42885 19.4834 7.3736 19.4451 7.32542C19.4068 7.27725 19.3593 7.2371 19.3055 7.20726C17.9876 6.47781 16.5062 6.09468 15 6.09375C3.18636 6.58201 3.18651 23.4182 15.0001 23.9062C16.5493 23.9072 18.072 23.5037 19.4176 22.7357C20.7631 21.9677 21.8849 20.8618 22.672 19.5273C23.4591 18.1929 23.8842 16.6761 23.9054 15.1269C23.9266 13.5778 23.5431 12.05 22.7927 10.6945C22.763 10.6404 22.7229 10.5927 22.6747 10.5542C22.6266 10.5156 22.5712 10.4869 22.5119 10.4698C22.4527 10.4527 22.3906 10.4475 22.3293 10.4544C22.2679 10.4613 22.2086 10.4803 22.1546 10.5102C22.1007 10.5401 22.0531 10.5804 22.0148 10.6288C21.9764 10.6771 21.948 10.7325 21.9311 10.7919C21.9142 10.8512 21.9092 10.9133 21.9164 10.9746C21.9235 11.0359 21.9427 11.0952 21.9729 11.149C24.944 16.3019 20.9527 23.0719 14.9999 22.9687C12.8872 22.9663 10.8617 22.126 9.36778 20.6321C7.87388 19.1382 7.03358 17.1127 7.03124 15C6.92914 9.04734 13.6974 5.05551 18.851 8.02725C18.9048 8.0572 18.964 8.07623 19.0252 8.08325C19.0864 8.09027 19.1483 8.08515 19.2075 8.06817C19.2667 8.05118 19.322 8.02268 19.3701 7.98429C19.4183 7.9459 19.4584 7.89839 19.4881 7.84447Z" fill="white"/>
<path id="Vector_4" d="M20.4019 6.51488L20.574 8.76315L14.6686 14.6686C14.5837 14.7571 14.5368 14.8754 14.5381 14.998C14.5394 15.1207 14.5887 15.2379 14.6754 15.3247C14.7621 15.4114 14.8794 15.4607 15.0021 15.4619C15.1247 15.4632 15.243 15.4163 15.3315 15.3314L21.2369 9.426L23.4851 9.59814C23.5525 9.60331 23.6202 9.59383 23.6836 9.57036C23.747 9.5469 23.8045 9.51 23.8523 9.46221L27.264 6.05072C27.3261 5.9868 27.3688 5.90661 27.3872 5.81943C27.4056 5.73224 27.3989 5.64163 27.368 5.55807C27.3371 5.4745 27.2831 5.40141 27.2124 5.34723C27.1416 5.29306 27.057 5.26002 26.9682 5.25194L24.906 5.094L24.7481 3.03175C24.74 2.94304 24.7069 2.85843 24.6527 2.78771C24.5985 2.717 24.5255 2.66306 24.4419 2.63214C24.3584 2.60121 24.2678 2.59456 24.1806 2.61295C24.0934 2.63135 24.0132 2.67403 23.9493 2.73608L20.5378 6.14775C20.49 6.1955 20.4531 6.25304 20.4296 6.31641C20.4061 6.37979 20.3967 6.4475 20.4019 6.51488ZM23.8912 4.11986C24.0788 6.30283 23.7096 5.91856 25.8802 6.10883L23.3419 8.64691L21.4946 8.50546L21.3531 6.65815L23.8912 4.11986Z" fill="white"/>
</g>
</svg>
