<svg width="47" height="47" viewBox="0 0 47 47" fill="none" xmlns="http://www.w3.org/2000/svg">
<g id="whatsapp (3) 1">
<path id="Vector" d="M33.3971 27.1169C33.1644 26.986 32.9007 26.8376 32.5829 26.6463C32.4055 26.5392 32.1825 26.3928 31.9463 26.2378C30.7334 25.4417 29.8145 24.8782 29.0322 24.8782C28.8489 24.8782 28.6756 24.9093 28.5176 24.9702C27.8323 25.2341 27.2695 25.9392 26.7252 26.621C26.5257 26.8708 26.2403 27.2284 26.067 27.3882C25.3798 27.2633 23.9305 26.3654 22.3664 24.8014C20.8006 23.2355 19.9025 21.7845 19.7792 21.099C19.9389 20.9251 20.2993 20.6375 20.5506 20.4367C21.2298 19.8945 21.9321 19.3338 22.1975 18.6506C22.5361 17.7727 21.9156 16.7228 20.9302 15.2216C20.7751 14.9853 20.6286 14.7621 20.5223 14.5862C20.3304 14.2672 20.182 14.0032 20.0511 13.7706C19.5138 12.8158 19.1589 12.1847 17.825 12.1847C16.9592 12.1847 15.7352 13.0028 14.9061 13.8141C13.7012 14.9934 13.0375 16.3549 13.0375 17.6505C13.0398 21.1695 15.0037 25.2027 18.4257 28.7199C18.4316 28.7258 18.4374 28.7274 18.4435 28.7333C21.9608 32.1553 25.9962 34.1125 29.515 34.1125H29.5164C30.8103 34.1125 32.1723 33.4565 33.3515 32.2522C34.1634 31.4232 34.9826 30.2081 34.9826 29.3429C34.9827 28.0092 34.352 27.6543 33.3971 27.1169ZM29.5154 32.2945C26.518 32.2923 22.8617 30.4758 19.7329 27.4352C16.6919 24.3061 14.8754 20.6494 14.8735 17.6524C14.8735 15.8395 17.2261 14.1158 17.8413 14.0213C17.967 14.0219 18.0329 14.0293 18.0643 14.0346C18.1456 14.1283 18.3073 14.4156 18.4512 14.6714C18.5815 14.903 18.7437 15.1912 18.9502 15.5344C19.075 15.7412 19.2307 15.9784 19.3955 16.2293C19.7073 16.7045 20.3342 17.6595 20.4399 18.0672C20.2632 18.3173 19.7149 18.755 19.4053 19.0021C18.613 19.6347 17.9288 20.1809 17.9288 20.9528C17.9307 22.8174 20.3324 25.3638 21.0684 26.0999C21.8044 26.8359 24.3509 29.2376 26.2194 29.2394C26.9864 29.2369 27.5303 28.5555 28.1602 27.7665C28.4086 27.4554 28.8489 26.9038 29.1001 26.728C29.5073 26.833 30.4636 27.4606 30.9391 27.7728C31.19 27.9375 31.4271 28.0931 31.6352 28.2187C31.9772 28.4245 32.2653 28.5867 32.4969 28.717C32.7527 28.8609 33.0401 29.0227 33.1337 29.104C33.1391 29.1353 33.1464 29.2012 33.1471 29.3268C33.0519 29.9415 31.3276 32.2923 29.5154 32.2945Z" fill="white"/>
<path id="Vector_2" d="M42.2619 23.5878C42.1974 18.6271 40.2062 13.9394 36.6551 10.3882C33.0385 6.77158 28.2646 4.77977 23.2126 4.77977C18.3359 4.77977 13.7738 6.65628 10.3665 10.0635C7.34288 13.0871 5.48785 17.1197 5.14279 21.4187C4.81553 25.4974 5.85385 29.625 8.07102 33.0954L5.04337 41.2793C4.91633 41.6228 5.00555 42.009 5.27057 42.2619C5.44471 42.4281 5.67282 42.5158 5.90452 42.5158C6.02532 42.5158 6.14723 42.4808 6.2628 42.4317L14.1481 39.0762C17.1583 40.9498 20.6003 41.9154 24.1346 41.9154H24.135C29.0109 41.9154 33.5729 40.0613 36.9798 36.6544C40.4504 33.1837 42.3264 28.5575 42.2619 23.5878ZM35.6814 35.3785C32.6211 38.4388 28.5203 40.1241 24.1346 40.124C20.7956 40.124 17.5471 39.1467 14.7402 37.2977C14.588 37.1975 14.4121 37.1464 14.2352 37.1464C14.1137 37.1464 13.9918 37.1705 13.8768 37.2193L7.50279 39.9227L9.95377 33.2977C10.0563 33.0203 10.019 32.7106 9.85371 32.4656C5.34869 25.7915 6.11033 16.9161 11.6647 11.3618C14.7252 8.30128 18.8263 6.61571 23.2126 6.61571C27.7741 6.61571 32.087 8.41649 35.3568 11.6864C38.5676 14.8971 40.3678 19.1322 40.426 23.6117C40.4841 28.082 38.7991 32.2609 35.6814 35.3785Z" fill="white"/>
</g>
</svg>
