<svg width="367" height="304" viewBox="0 0 367 304" fill="none" xmlns="http://www.w3.org/2000/svg">
<g clip-path="url(#clip0_115_4336)">
<path d="M145.346 110.059C143.507 106.035 102.201 139.328 97.6115 153.603C97.6115 153.603 105.397 189.313 101.99 195.154C101.99 195.154 101.751 177.128 94.8704 162.694C94.8704 162.694 65.9685 217.889 77.3834 262.402C77.3834 262.402 102.361 224.73 136.376 212.358C136.376 212.358 111.24 209.916 91.5288 216.453C91.5288 216.453 121.004 206.701 147.125 208.331C162.879 195.36 180.673 185.087 199.783 177.929C199.783 177.929 178.598 169.332 127.457 173.427C127.457 173.427 193.317 168.826 213.934 172.665C213.934 172.665 223.977 167.836 258.715 148.748C271.059 142.389 281.53 132.92 289.098 121.277C289.098 121.277 270.245 110.849 203.718 123.101C203.718 123.101 262.273 107.944 293.174 114.08C293.174 114.08 302.92 101.187 303.335 78.4235C303.335 78.4235 286.314 70.3283 249.898 86.5094C249.898 86.5094 278.777 71.5313 299.237 69.6484C299.237 69.6484 302.588 34.7756 293.489 13.1453L288.258 1.14941C288.258 1.14941 266.981 34.7466 251.059 44.9084C251.059 44.9084 252.879 67.3504 255.073 69.4741C257.268 71.5978 250.399 54.2501 247.79 46.7954C247.79 46.7954 219.886 70.1717 201.794 72.3826C201.794 72.3826 218.35 86.8011 215.493 115.819C215.493 115.819 212.626 80.6604 197.436 74.8986L152.028 104.021C152.028 104.021 162.384 138.731 153.267 152.714" fill="#111829"/>
<path d="M225.463 89.4759L220.367 67.2301L216.4 70.0046L225.463 89.4759Z" fill="#111829"/>
<path d="M89.4488 205.302L85.9706 206.825C87.0377 206.129 88.2131 205.614 89.4488 205.302Z" fill="#111829"/>
<mask id="mask0_115_4336" style="mask-type:luminance" maskUnits="userSpaceOnUse" x="85" y="205" width="5" height="2">
<path d="M89.4488 205.302L85.9706 206.825C87.0377 206.129 88.2131 205.614 89.4488 205.302Z" fill="white"/>
</mask>
<g mask="url(#mask0_115_4336)">
<path d="M89.4488 205.302L85.9706 206.825C87.0377 206.129 88.2131 205.614 89.4488 205.302Z" fill="#111829"/>
</g>
<path d="M145.346 110.059C143.507 106.035 102.201 139.328 97.6115 153.603C97.6115 153.603 105.397 189.313 101.99 195.154C101.99 195.154 101.751 177.128 94.8704 162.694C94.8704 162.694 65.9685 217.889 77.3834 262.402C77.3834 262.402 102.361 224.73 136.376 212.358C136.376 212.358 111.24 209.916 91.5288 216.453C91.5288 216.453 121.004 206.701 147.125 208.331C162.879 195.36 180.673 185.087 199.783 177.929C199.783 177.929 178.598 169.332 127.457 173.427C127.457 173.427 193.317 168.826 213.934 172.665C213.934 172.665 223.977 167.836 258.715 148.748C271.059 142.389 281.53 132.92 289.098 121.277C289.098 121.277 270.245 110.849 203.718 123.101C203.718 123.101 262.273 107.944 293.174 114.08C293.174 114.08 302.92 101.187 303.335 78.4235C303.335 78.4235 286.314 70.3283 249.898 86.5094C249.898 86.5094 278.777 71.5313 299.237 69.6484C299.237 69.6484 302.588 34.7756 293.489 13.1453L288.258 1.14941C288.258 1.14941 266.981 34.7466 251.059 44.9084C251.059 44.9084 252.879 67.3504 255.073 69.4741C257.268 71.5978 250.399 54.2501 247.79 46.7954C247.79 46.7954 219.886 70.1717 201.794 72.3826C201.794 72.3826 218.35 86.8011 215.493 115.819C215.493 115.819 212.626 80.6604 197.436 74.8986L152.028 104.021C152.028 104.021 162.384 138.731 153.267 152.714" fill="#111829"/>
<path d="M79.6721 256.721C79.6721 256.721 94.9752 236.26 106.408 245.16C111.524 248.988 108.069 255.584 108.069 255.584C108.069 255.584 110.043 249.358 100.904 247.369C91.7661 245.379 80.0305 261.116 78.6293 267.495L79.6721 256.721Z" fill="#111829"/>
<mask id="mask1_115_4336" style="mask-type:luminance" maskUnits="userSpaceOnUse" x="78" y="242" width="32" height="26">
<path d="M79.6721 256.721C79.6721 256.721 94.9752 236.26 106.408 245.16C111.524 248.988 108.069 255.584 108.069 255.584C108.069 255.584 110.043 249.358 100.904 247.369C91.7661 245.379 80.0305 261.116 78.6293 267.495L79.6721 256.721Z" fill="white"/>
</mask>
<g mask="url(#mask1_115_4336)">
<path d="M79.6721 256.721C79.6721 256.721 94.9752 236.26 106.408 245.16C111.524 248.988 108.069 255.584 108.069 255.584C108.069 255.584 110.043 249.358 100.904 247.369C91.7661 245.379 80.0305 261.116 78.6293 267.495L79.6721 256.721Z" fill="#111829"/>
</g>
<path d="M78.066 258.132C78.066 258.132 81.3321 221.855 59.4987 230.586C59.4987 230.586 71.5831 228.453 73.8244 240.721C75.5736 248.646 75.7791 256.832 74.4296 264.834L78.066 258.132Z" fill="#111829"/>
<mask id="mask2_115_4336" style="mask-type:luminance" maskUnits="userSpaceOnUse" x="59" y="229" width="20" height="36">
<path d="M78.066 258.132C78.066 258.132 81.3321 221.855 59.4987 230.586C59.4987 230.586 71.5831 228.453 73.8244 240.721C75.5736 248.646 75.7791 256.832 74.4296 264.834L78.066 258.132Z" fill="white"/>
</mask>
<g mask="url(#mask2_115_4336)">
<path d="M78.066 258.132C78.066 258.132 81.3321 221.855 59.4987 230.586C59.4987 230.586 71.5831 228.453 73.8244 240.721C75.5736 248.646 75.7791 256.832 74.4296 264.834L78.066 258.132Z" fill="#111829"/>
</g>
<path d="M76.8105 262.248C76.8105 262.248 79.0602 248.113 68.6226 246.389C58.1851 244.665 59.2524 256.158 61.5722 257.241C63.8919 258.323 61.1701 248.996 66.2981 249.911C71.4261 250.825 72.5467 256.96 72.5467 256.96L74.8239 271.387L76.8105 262.248Z" fill="#111829"/>
<mask id="mask3_115_4336" style="mask-type:luminance" maskUnits="userSpaceOnUse" x="60" y="246" width="18" height="26">
<path d="M76.8105 262.248C76.8105 262.248 79.0602 248.113 68.6226 246.389C58.1851 244.665 59.2524 256.158 61.5722 257.241C63.8919 258.323 61.1701 248.996 66.2981 249.911C71.4261 250.825 72.5467 256.96 72.5467 256.96L74.8239 271.387L76.8105 262.248Z" fill="white"/>
</mask>
<g mask="url(#mask3_115_4336)">
<path d="M76.8105 262.248C76.8105 262.248 79.0602 248.113 68.6226 246.389C58.1851 244.665 59.2524 256.158 61.5722 257.241C63.8919 258.323 61.1701 248.996 66.2981 249.911C71.4261 250.825 72.5467 256.96 72.5467 256.96L74.8239 271.387L76.8105 262.248Z" fill="#111829"/>
</g>
<path d="M72.9032 272.254C80.788 194.075 129.633 165.874 177.696 137.156C223.712 110.346 275.463 80.4683 287.14 1.3103C275.463 80.4683 231.625 106.02 186.322 135.324C167.054 147.66 85.0507 182.168 79.0925 272.071L79.6522 303.233L71.5284 290.001C72.1014 290.155 71.873 280.115 72.9032 272.254Z" fill="#111829"/>
<mask id="mask4_115_4336" style="mask-type:luminance" maskUnits="userSpaceOnUse" x="71" y="1" width="217" height="303">
<path d="M72.9032 272.254C80.788 194.075 129.633 165.874 177.696 137.156C223.712 110.346 275.463 80.4683 287.14 1.3103C275.463 80.4683 231.625 106.02 186.322 135.324C167.054 147.66 85.0507 182.168 79.0925 272.071L79.6522 303.233L71.5284 290.001C72.1014 290.155 71.873 280.115 72.9032 272.254Z" fill="white"/>
</mask>
<g mask="url(#mask4_115_4336)">
<path d="M72.9032 272.254C80.788 194.075 129.633 165.874 177.696 137.156C223.712 110.346 275.463 80.4683 287.14 1.3103C275.463 80.4683 231.625 106.02 186.322 135.324C167.054 147.66 85.0507 182.168 79.0925 272.071L79.6522 303.233L71.5284 290.001C72.1014 290.155 71.873 280.115 72.9032 272.254Z" fill="#111829"/>
</g>
<path d="M218.739 126.054C218.739 126.054 254.077 118.488 278.034 124.759C278.034 124.759 272.988 136.148 254.823 144.941C254.823 144.941 273.903 120.12 218.634 125.872" fill="#111829"/>
<path d="M206.359 109.224C206.359 109.224 205.785 91.8757 195.099 81.3341L179.539 91.2862C179.539 91.2862 201.273 77.7697 206.541 109.12" fill="#111829"/>
<path d="M298.202 82.1135C298.202 82.1135 268.874 78.7017 249.614 92.7279C249.614 92.7279 272.348 81.7824 296.103 89.3803C296.285 89.2755 297.709 87.9687 298.202 82.1135Z" fill="#111829"/>
</g>
<defs>
<clipPath id="clip0_115_4336">
<rect width="332.119" height="157.729" fill="white" transform="translate(0.424561 166.846) rotate(-30)"/>
</clipPath>
</defs>
</svg>
