<svg width="40" height="40" viewBox="0 0 40 40" fill="none" xmlns="http://www.w3.org/2000/svg">
<g id="call (1) 1" clip-path="url(#clip0_115_4401)">
<path id="Vector" d="M20 0C8.97195 0 0 8.97195 0 20C0 31.028 8.97195 40 20 40C31.028 40 40 31.028 40 20C40 8.97195 31.028 0 20 0ZM20 38.125C10.0059 38.125 1.875 29.9941 1.875 20C1.875 10.0059 10.0059 1.875 20 1.875C29.9941 1.875 38.125 10.0059 38.125 20C38.125 29.9941 29.9941 38.125 20 38.125ZM30.4598 23.6379C30.4598 23.6379 30.4598 23.6379 30.4598 23.6379L26.7857 21.5166C26.2231 21.1919 25.5666 21.1058 24.9373 21.2744C24.308 21.443 23.7825 21.8457 23.4577 22.4084C23.2693 22.7348 22.9392 23.1455 22.4371 23.2482C21.9791 23.3419 21.5748 23.251 21.2011 22.9705C19.8203 21.9343 18.0659 20.1799 17.0295 18.799C16.7491 18.4252 16.6582 18.0209 16.7519 17.563C16.8545 17.0608 17.2652 16.7308 17.5917 16.5423C18.7551 15.8705 19.1551 14.3777 18.4834 13.2143L16.3622 9.54008C15.7546 8.48789 14.4927 8.04656 13.362 8.49055L13.318 8.50781C11.5623 9.19711 10.2784 9.72609 9.74742 10.257C8.78297 11.2216 7.80609 13.0163 8.62961 16.0897C10.2291 22.0591 17.9409 29.7709 23.9103 31.3705C24.7209 31.5877 25.4424 31.6796 26.0834 31.6796C27.8727 31.6796 29.033 30.9628 29.7431 30.2527C30.274 29.7218 30.8028 28.4381 31.492 26.6828L31.5096 26.6381C31.9534 25.5073 31.512 24.2455 30.4598 23.6379ZM29.7641 25.9528L29.7465 25.9976C29.414 26.8445 28.7222 28.6066 28.417 28.9268C27.5221 29.8218 26.1691 30.0345 24.3954 29.5594C19.0467 28.1262 11.8736 20.953 10.4405 15.6044C9.96523 13.8309 10.178 12.4777 11.0721 11.5837C11.3933 11.2777 13.1559 10.5857 14.003 10.2532L14.047 10.2359C14.1173 10.2082 14.1888 10.1951 14.2588 10.1951C14.4525 10.1951 14.6337 10.2968 14.7381 10.4777L16.8594 14.1518C17.0141 14.4198 16.922 14.7637 16.654 14.9184C15.7215 15.4568 15.1038 16.2626 14.9147 17.1873C14.7131 18.1731 14.9258 19.1195 15.5297 19.9244C16.6773 21.4535 18.5466 23.3228 20.0755 24.4702C20.8802 25.0741 21.8267 25.2867 22.8126 25.0852C23.7373 24.896 24.5431 24.2783 25.0815 23.3458C25.1559 23.217 25.277 23.1245 25.4226 23.0855C25.568 23.0466 25.7192 23.0659 25.8482 23.1404L29.5223 25.2616C29.7686 25.404 29.868 25.6882 29.7641 25.9528Z" fill="white"/>
</g>
<defs>
<clipPath id="clip0_115_4401">
<rect width="40" height="40" fill="white"/>
</clipPath>
</defs>
</svg>
