<svg width="29" height="29" viewBox="0 0 29 29" fill="none" xmlns="http://www.w3.org/2000/svg">
<g id="security (3) 2" clip-path="url(#clip0_129_5948)">
<path id="Vector" d="M25.4816 5.8717L14.5821 0.0639016C14.4204 -0.0223979 14.2266 -0.0211867 14.0661 0.0669296L3.46825 5.87473C3.29444 5.97011 3.18665 6.1524 3.18665 6.35074V13.9372C3.193 20.1735 6.88783 25.8154 12.6018 28.3138L14.0728 28.9548C14.2103 29.0148 14.3668 29.0151 14.5046 28.9554L16.1621 28.2396C21.9821 25.7954 25.7683 20.099 25.7689 13.7867V6.35074C25.7689 6.15028 25.6584 5.96588 25.4816 5.8717ZM24.6837 13.7867C24.6825 19.6639 21.1563 24.9669 15.7373 27.2413L15.7337 27.2431L14.2902 27.8663L13.036 27.3191C7.71721 24.9935 4.27765 19.7423 4.2716 13.9372V6.67202L14.3305 1.15915L24.6837 6.67595V13.7867Z" fill="white"/>
<path id="Vector_2" d="M10.3271 13.5854C10.1324 13.3573 9.78993 13.3304 9.56191 13.5251C9.3339 13.7195 9.30695 14.0623 9.50166 14.29L12.368 17.6466C12.5594 17.8707 12.8946 17.9012 13.1229 17.7153L19.7985 12.2842C20.0311 12.0953 20.0662 11.7534 19.877 11.5208C19.688 11.2886 19.3461 11.2532 19.1136 11.4424L12.8492 16.5386L10.3271 13.5854Z" fill="white"/>
</g>
<defs>
<clipPath id="clip0_129_5948">
<rect width="29" height="29" fill="white"/>
</clipPath>
</defs>
</svg>
