<svg width="292" height="130" viewBox="0 0 292 130" fill="none" xmlns="http://www.w3.org/2000/svg">
<path d="M167.443 10.9389C167.64 8.86933 143.03 12.7129 137.813 17.3449C137.813 17.3449 132.596 33.7046 129.84 35.2814C129.84 35.2814 134.073 27.9885 134.565 20.4985C134.565 20.4985 109.857 36.1684 104.049 56.8645C104.049 56.8645 123.048 47.502 139.782 50.4585C139.782 50.4585 130.234 43.4613 120.587 41.5888C120.587 41.5888 134.86 44.5454 145.196 51.3455C154.646 49.7686 164.292 49.7686 173.743 51.3455C173.743 51.3455 167.147 42.7714 145.294 32.522C145.294 32.522 173.152 46.1222 180.633 52.5281C180.633 52.5281 185.85 52.9223 204.553 53.218C211.064 53.5208 217.542 52.1287 223.355 49.1773C223.355 49.1773 218.138 40.5047 188.114 29.861C188.114 29.861 215.48 37.5481 226.603 47.3048C226.603 47.3048 233.592 44.3483 239.105 35.0843C239.105 35.0843 234.084 27.7914 215.48 25.9189C215.48 25.9189 230.836 26.6088 239.498 30.5509C239.498 30.5509 249.047 17.1477 250.425 6.20841L251.212 0.0981445C251.212 0.0981445 234.675 8.86933 225.717 9.16499C225.717 9.16499 221.189 18.7246 221.583 20.1043C221.977 21.4841 223.355 12.8114 224.044 9.16499C224.044 9.16499 207.113 12.1216 199.336 8.86933C199.336 8.86933 202.585 18.626 194.611 29.7625C194.611 29.7625 201.699 14.7825 196.875 8.86933L171.577 10.052C171.577 10.052 167.64 26.6088 160.651 30.0581" fill="white"/>
<path d="M204.847 21.3861L207.997 11.1366H205.733L204.847 21.3861Z" fill="white"/>
<path d="M122.364 36.5633L120.592 36.3662C121.19 36.284 121.799 36.3517 122.364 36.5633Z" fill="white"/>
<mask id="mask0_70_1134" style="mask-type:luminance" maskUnits="userSpaceOnUse" x="120" y="36" width="3" height="1">
<path d="M122.366 36.5635L120.594 36.3664C121.192 36.2841 121.801 36.3518 122.366 36.5635Z" fill="white"/>
</mask>
<g mask="url(#mask0_70_1134)">
<path d="M122.367 36.5636L120.595 36.3665C121.193 36.2842 121.802 36.352 122.367 36.5636Z" fill="white"/>
</g>
<path d="M167.444 10.94C167.641 8.87043 143.032 12.714 137.815 17.346C137.815 17.346 132.597 33.7057 129.841 35.2825C129.841 35.2825 134.074 27.9896 134.566 20.4996C134.566 20.4996 109.859 36.1695 104.051 56.8656C104.051 56.8656 123.049 47.5031 139.783 50.4596C139.783 50.4596 130.235 43.4624 120.588 41.5899C120.588 41.5899 134.862 44.5465 145.197 51.3466C154.648 49.7697 164.294 49.7697 173.744 51.3466C173.744 51.3466 167.149 42.7725 145.296 32.5231C145.296 32.5231 173.153 46.1233 180.635 52.5292C180.635 52.5292 185.852 52.9234 204.555 53.2191C211.065 53.5219 217.543 52.1298 223.356 49.1784C223.356 49.1784 218.139 40.5058 188.116 29.8621C188.116 29.8621 215.481 37.5492 226.605 47.3059C226.605 47.3059 233.594 44.3494 239.106 35.0854C239.106 35.0854 234.086 27.7925 215.481 25.92C215.481 25.92 230.837 26.6099 239.5 30.552C239.5 30.552 249.048 17.1488 250.426 6.20951L251.214 0.0992432C251.214 0.0992432 234.677 8.87043 225.719 9.16608C225.719 9.16608 221.191 18.7257 221.584 20.1054C221.978 21.4852 223.356 12.8125 224.045 9.16608C224.045 9.16608 207.114 12.1227 199.338 8.87043C199.338 8.87043 202.586 18.6271 194.613 29.7636C194.613 29.7636 201.7 14.7836 196.877 8.87043L171.578 10.0531C171.578 10.0531 167.641 26.6099 160.652 30.0592" fill="white"/>
<path d="M106.311 55.0909C106.311 55.0909 117.335 50.4589 119.895 56.6677C121.175 59.5257 118.221 61.3982 118.221 61.3982C118.221 61.3982 120.485 59.3286 117.139 56.372C113.792 53.4155 105.523 57.0619 103.357 59.3286L106.311 55.0909Z" fill="white"/>
<mask id="mask1_70_1134" style="mask-type:luminance" maskUnits="userSpaceOnUse" x="103" y="53" width="18" height="9">
<path d="M106.314 55.0926C106.314 55.0926 117.339 50.4606 119.899 56.6694C121.178 59.5274 118.225 61.3999 118.225 61.3999C118.225 61.3999 120.489 59.3303 117.142 56.3738C113.796 53.4172 105.527 57.0636 103.361 59.3303L106.314 55.0926Z" fill="white"/>
</mask>
<g mask="url(#mask1_70_1134)">
<path d="M106.313 55.0931C106.313 55.0931 117.338 50.4611 119.897 56.6699C121.177 59.5279 118.224 61.4004 118.224 61.4004C118.224 61.4004 120.488 59.3308 117.141 56.3742C113.794 53.4177 105.525 57.0641 103.36 59.3308L106.313 55.0931Z" fill="white"/>
</g>
<path d="M105.335 55.2875C105.335 55.2875 115.278 41.3915 104.253 39.8147C104.253 39.8147 109.667 41.6872 107.796 47.3047C106.568 50.9056 104.737 54.2714 102.382 57.2585L105.335 55.2875Z" fill="white"/>
<mask id="mask2_70_1134" style="mask-type:luminance" maskUnits="userSpaceOnUse" x="102" y="39" width="8" height="19">
<path d="M105.341 55.287C105.341 55.287 115.283 41.3911 104.258 39.8142C104.258 39.8142 109.672 41.6867 107.802 47.3042C106.573 50.9051 104.742 54.2709 102.388 57.258L105.341 55.287Z" fill="white"/>
</mask>
<g mask="url(#mask2_70_1134)">
<path d="M105.342 55.2871C105.342 55.2871 115.284 41.3912 104.259 39.8143C104.259 39.8143 109.673 41.6868 107.803 47.3043C106.574 50.9052 104.743 54.271 102.389 57.2581L105.342 55.2871Z" fill="white"/>
</g>
<path d="M103.951 56.6679C103.951 56.6679 108.085 51.4447 104.246 48.3895C100.407 45.3344 98.1428 50.0649 98.8319 51.149C99.5209 52.2331 100.604 47.6997 102.474 49.1779C104.344 50.6562 103.36 53.6128 103.36 53.6128L100.997 60.0187L103.951 56.6679Z" fill="white"/>
<mask id="mask3_70_1134" style="mask-type:luminance" maskUnits="userSpaceOnUse" x="98" y="47" width="8" height="14">
<path d="M103.953 56.6686C103.953 56.6686 108.087 51.4453 104.248 48.3901C100.409 45.335 98.1447 50.0655 98.8338 51.1496C99.5229 52.2337 100.606 47.7003 102.476 49.1786C104.346 50.6568 103.362 53.6134 103.362 53.6134L100.999 60.0193L103.953 56.6686Z" fill="white"/>
</mask>
<g mask="url(#mask3_70_1134)">
<path d="M103.953 56.6684C103.953 56.6684 108.088 51.4451 104.249 48.39C100.41 45.3349 98.1457 50.0654 98.8348 51.1495C99.5238 52.2336 100.607 47.7001 102.477 49.1784C104.347 50.6567 103.363 53.6133 103.363 53.6133L101 60.0192L103.953 56.6684Z" fill="white"/>
</g>
<path d="M99.913 59.8214C121.471 29.8614 147.95 29.8614 174.233 29.5658C199.334 29.3687 227.29 29.3687 250.62 0C227.29 29.3687 203.469 29.5658 178.269 30.7484C167.441 31.3397 125.999 26.1164 102.472 61.2012L95.3849 74.1116L95.188 66.8187C95.3849 67.0158 97.6489 62.778 99.913 59.8214Z" fill="white"/>
<mask id="mask4_70_1134" style="mask-type:luminance" maskUnits="userSpaceOnUse" x="95" y="0" width="156" height="75">
<path d="M99.9086 59.8214C121.466 29.8614 147.946 29.8614 174.228 29.5658C199.33 29.3687 227.286 29.3687 250.615 0C227.286 29.3687 203.464 29.5658 178.264 30.7484C167.436 31.3397 125.994 26.1164 102.468 61.2012L95.3805 74.1116L95.1836 66.8187C95.3805 67.0158 97.6445 62.778 99.9086 59.8214Z" fill="white"/>
</mask>
<g mask="url(#mask4_70_1134)">
<path d="M99.9081 59.8214C121.466 29.8614 147.945 29.8614 174.228 29.5658C199.329 29.3687 227.285 29.3687 250.615 0C227.285 29.3687 203.464 29.5658 178.264 30.7484C167.436 31.3397 125.994 26.1164 102.467 61.2012L95.38 74.1116L95.1831 66.8187C95.38 67.0158 97.644 62.778 99.9081 59.8214Z" fill="white"/>
</g>
<path d="M193.527 34.5918C193.527 34.5918 209.769 39.8151 217.939 47.995C217.939 47.995 213.214 51.4443 203.863 50.7544C203.863 50.7544 217.349 45.2355 193.527 34.5918Z" fill="white"/>
<path d="M192.54 24.8349C192.54 24.8349 196.379 17.7391 194.41 10.939L185.748 11.2346C185.748 11.2346 197.757 10.939 192.54 24.8349Z" fill="white"/>
<path d="M236.15 35.4791C236.15 35.4791 225.027 27.1021 213.903 28.3833C213.903 28.3833 225.716 29.1717 233.591 37.9429C233.788 37.9429 234.673 37.7458 236.15 35.4791Z" fill="white"/>
<path d="M25.3967 73.0273H31.6967V73.8158C29.7279 73.8158 28.7436 74.9984 28.7436 77.2651V77.7579L30.1217 94.1176C30.1236 95.3236 30.4282 96.5097 31.0076 97.5669C31.6654 98.2212 32.5424 98.6075 33.4685 98.651V99.3409H23.8217V98.651C24.2275 98.6473 24.6265 98.5471 24.9859 98.3586C25.3453 98.1701 25.6548 97.8988 25.8889 97.5669C26.4064 96.9259 26.6849 96.1245 26.6764 95.3002V94.6104L25.1998 77.4622L16.0452 99.538H15.3562L6.29996 77.7579L4.72497 94.1176V94.8075C4.64247 95.7858 4.94698 96.7574 5.57295 97.5131C6.19892 98.2689 7.09628 98.7483 8.07182 98.8481H8.17026V99.538H0V98.8481C0.475169 98.8112 0.938022 98.6788 1.36087 98.4586C1.78371 98.2385 2.15786 97.9352 2.46092 97.5669C3.08304 96.4508 3.42111 95.1985 3.44529 93.9205L5.02028 75.6883C4.10951 74.6823 2.90304 73.9921 1.57499 73.7172V73.0273H8.36714L16.9311 93.9205L25.3967 73.0273Z" fill="white"/>
<path d="M45.0832 96.1875V90.6685L43.0161 91.3584C41.8235 91.6494 40.7338 92.263 39.8661 93.1323C39.5842 93.4312 39.3752 93.7914 39.2557 94.1847C39.1361 94.5779 39.1092 94.9936 39.177 95.399C39.1218 96.1157 39.3481 96.8256 39.8077 97.3777C40.2673 97.9299 40.924 98.2807 41.638 98.3556C42.3054 98.3441 42.9552 98.1387 43.5083 97.7643C44.1706 97.397 44.7164 96.8506 45.0832 96.1875ZM40.5551 100.031C39.9573 100.071 39.3575 99.9894 38.7921 99.7907C38.2267 99.5921 37.7074 99.2806 37.2657 98.8752C36.824 98.4699 36.469 97.979 36.2223 97.4323C35.9756 96.8856 35.8422 96.2945 35.8302 95.6947C35.7937 95.164 35.8919 94.6327 36.1157 94.1503C36.3394 93.6678 36.6814 93.2498 37.1099 92.9352C38.5739 91.9488 40.2101 91.2467 41.9333 90.8656L45.0832 89.7815V88.5989C45.0868 87.5155 44.7027 86.4667 44.0004 85.6423C43.6688 85.2983 43.2711 85.0249 42.8313 84.8386C42.3915 84.6523 41.9186 84.557 41.4411 84.5583C40.4815 84.551 39.5466 84.863 38.7833 85.4452C38.023 86.1299 37.4762 87.0196 37.2083 88.0076H36.4208C36.6236 86.5738 37.3624 85.2706 38.488 84.3611C39.5137 83.355 40.891 82.7892 42.327 82.7843C43.9087 82.7966 45.4381 83.3534 46.6582 84.3611C47.1977 84.9414 47.6151 85.6242 47.8856 86.3692C48.1562 87.1141 48.2744 87.9059 48.2332 88.6975V95.6947C48.1511 96.3907 48.2182 97.0963 48.4301 97.7643C48.4539 97.9297 48.5369 98.0808 48.6637 98.1896C48.7904 98.2983 48.9523 98.3573 49.1192 98.3556C49.2176 98.3556 49.6113 98.1585 49.6113 97.9614C49.817 97.5859 49.982 97.1894 50.1035 96.7788H50.9895C51.0363 97.2339 50.9606 97.6933 50.7702 98.1092C50.5798 98.5252 50.2816 98.8825 49.9067 99.144C49.6068 99.4347 49.2522 99.6628 48.8635 99.815C48.4749 99.9673 48.0599 100.041 47.6426 100.031C46.2645 100.031 45.3786 99.3411 44.8864 97.7643C44.2706 98.4943 43.5774 99.1551 42.8192 99.7354C42.0816 99.937 41.3198 100.036 40.5551 100.031Z" fill="white"/>
<path d="M68.6101 82.6851H69.2992V96.3839C69.2166 97.0791 69.3917 97.7804 69.7914 98.3549C70.4724 98.7615 71.2673 98.9345 72.0554 98.8477V99.5376L66.1492 99.8332V96.8766C65.5316 97.8334 64.687 98.6221 63.6907 99.1724C62.6945 99.7227 61.5776 100.017 60.4399 100.03C59.7223 100.077 59.0035 99.9597 58.3382 99.6864C57.6729 99.4131 57.0787 98.9915 56.6008 98.4535C56.0614 97.9555 55.64 97.343 55.3675 96.661C55.095 95.9789 54.9783 95.2444 55.0259 94.5114V86.1344C55.0699 85.8045 55.0299 85.4688 54.9094 85.1586C54.7889 84.8484 54.5919 84.5738 54.3368 84.3605C53.6558 83.9538 52.8609 83.7808 52.0728 83.8677V83.1778L57.2899 82.6851H58.1758V94.3143C58.1356 94.7883 58.191 95.2655 58.3387 95.7177C58.4864 96.1698 58.7234 96.5876 59.0357 96.9462C59.3479 97.3047 59.729 97.5968 60.1562 97.8049C60.5835 98.0131 61.0482 98.1331 61.5227 98.1578H61.9164C63.4914 98.1578 64.968 97.2708 66.3461 95.4969V86.6272C66.3461 85.4445 66.1492 84.7547 65.7555 84.5576C65.4602 84.1633 64.5742 84.0648 63.1961 84.0648V83.3749L68.6101 82.6851Z" fill="white"/>
<path d="M79.5386 82.6858V86.1352C80.6184 85.1325 81.7699 84.2102 82.9839 83.3757C83.618 82.8991 84.3637 82.5937 85.1495 82.4887C85.6954 82.4809 86.2374 82.5813 86.7442 82.7843C87.2511 82.9873 87.7128 83.2888 88.1026 83.6713L86.823 86.6279C85.6729 85.8652 84.3559 85.3918 82.9839 85.2482C81.6725 85.5083 80.471 86.1613 79.5386 87.1207V96.1875C79.456 96.8827 79.6312 97.5841 80.0308 98.1586C80.6756 98.5648 81.4396 98.7386 82.1964 98.6513V99.3412H73.4355V98.6513C74.2237 98.7382 75.0186 98.5652 75.6996 98.1586C76.0933 97.7644 76.1918 96.8774 76.1918 95.4977V86.4308C76.279 86.0399 76.2801 85.6346 76.1951 85.2432C76.1101 84.8517 75.941 84.4835 75.6996 84.1641C74.8444 83.7466 73.89 83.5759 72.9434 83.6713V82.9815L78.6527 82.4887H79.5386" fill="white"/>
<path d="M94.9919 74.3087C95.246 74.3084 95.4975 74.3599 95.7311 74.4601C95.9647 74.5603 96.1754 74.7071 96.3504 74.8915C96.5255 75.076 96.6611 75.2942 96.7491 75.5329C96.8371 75.7716 96.8755 76.0257 96.8622 76.2798C96.8625 76.5342 96.8111 76.786 96.711 77.0199C96.6109 77.2537 96.4643 77.4647 96.28 77.6399C96.0958 77.8152 95.8778 77.951 95.6394 78.0391C95.401 78.1271 95.1472 78.1657 94.8934 78.1523C94.4129 78.1035 93.9625 77.8954 93.6137 77.561C93.215 77.2071 92.9682 76.7128 92.9247 76.1812C92.9321 75.6613 93.1444 75.1654 93.5153 74.8015C93.9474 74.4934 94.4616 74.3218 94.9919 74.3087ZM95.7794 82.6857H96.5669V96.3845C96.5669 97.2715 96.7637 97.9613 97.1575 98.1584C97.7616 98.5738 98.4984 98.7494 99.2247 98.6512V99.3411H90.1685V98.6512C91.0511 98.7359 91.9395 98.5649 92.7278 98.1584C93.1499 97.6678 93.362 97.0306 93.3184 96.3845V86.4307C93.3184 85.4452 93.1216 84.7553 92.7278 84.5582C92.3341 84.3611 91.5466 84.0654 90.1685 84.0654V83.3756L95.7794 82.6857Z" fill="white"/>
<path d="M116.747 82.6848V88.4009H115.959C115.664 87.0223 114.981 85.7571 113.991 84.7544C113.51 84.2873 112.941 83.9211 112.316 83.6776C111.692 83.434 111.026 83.318 110.356 83.3364C109.686 83.3548 109.027 83.5071 108.417 83.7845C107.807 84.0619 107.259 84.4587 106.805 84.9516L106.509 85.2472C105.452 86.6692 104.898 88.4028 104.934 90.1748C104.884 92.223 105.507 94.231 106.706 95.8909C107.184 96.6131 107.826 97.2125 108.578 97.6406C109.33 98.0686 110.173 98.3133 111.037 98.3547C112.196 98.2573 113.329 97.9571 114.384 97.4677C115.497 96.8936 116.445 96.0458 117.141 95.0039V96.1866C116.351 97.3791 115.263 98.3434 113.985 98.9832C112.706 99.6231 111.283 99.9161 109.856 99.833C108.837 99.9134 107.811 99.7865 106.842 99.4598C105.873 99.1331 104.98 98.6135 104.217 97.9321C103.453 97.2508 102.836 96.4218 102.401 95.4952C101.966 94.5685 101.723 93.5633 101.686 92.5401C101.588 92.2525 101.588 91.9407 101.686 91.6531C101.609 89.2912 102.457 86.9927 104.048 85.2472C104.808 84.4151 105.737 83.7559 106.773 83.3138C107.809 82.8718 108.927 82.6573 110.053 82.6848C111.238 82.665 112.413 82.9003 113.498 83.3747L114.68 83.6704C114.931 83.6573 115.171 83.5642 115.366 83.4046C115.561 83.2451 115.7 83.0274 115.762 82.7834H116.747" fill="white"/>
<path d="M123.045 88.6979H131.904V88.4023C131.969 87.7759 131.897 87.1429 131.693 86.5472C131.489 85.9516 131.158 85.4075 130.723 84.9529C130.311 84.5377 129.82 84.2101 129.279 83.9899C128.737 83.7698 128.157 83.6615 127.573 83.6717C126.981 83.6683 126.394 83.7893 125.852 84.027C125.309 84.2646 124.822 84.6137 124.423 85.0515C123.544 86.0633 123.055 87.3567 123.045 88.6979ZM135.251 95.3995V96.5821C134.364 97.6014 133.375 98.5261 132.298 99.3416C131.172 99.9228 129.923 100.227 128.656 100.229C127.492 100.279 126.331 100.087 125.246 99.6624C124.161 99.2381 123.177 98.5918 122.356 97.7648C121.524 96.9883 120.873 96.0388 120.448 94.9831C120.023 93.9274 119.834 92.7912 119.895 91.6545C119.906 89.3486 120.785 87.1317 122.356 85.4457C123.083 84.5929 123.99 83.9119 125.011 83.4518C126.032 82.9917 127.142 82.7639 128.262 82.7848C130.107 82.8691 131.872 83.5621 133.282 84.7558C133.964 85.2963 134.514 85.9858 134.889 86.7715C135.265 87.5572 135.456 88.4183 135.448 89.2892V89.5849H123.439V89.782C123.446 91.3994 123.747 93.0021 124.325 94.5125C124.727 95.7785 125.564 96.861 126.687 97.5677C127.65 98.3204 128.815 98.7667 130.034 98.8488C130.999 98.8786 131.953 98.6398 132.79 98.159C132.987 97.5676 134.07 96.7792 135.251 95.3995Z" fill="white"/>
<path d="M152.477 87.2192H159.958L156.316 76.0828L152.477 87.2192ZM161.041 99.5383V98.8484C162.517 98.8484 163.305 98.3557 163.305 97.2716C163.287 96.9032 163.22 96.5387 163.108 96.1875L160.647 88.8946H152.083L150.41 94.315C149.986 95.2449 149.752 96.25 149.721 97.2716C149.721 98.3557 150.41 99.0455 151.788 99.0455V99.7354H144.996V99.0455C145.852 98.956 146.652 98.5731 147.26 97.9614C147.966 96.9795 148.56 95.9217 149.032 94.8078L156.316 72.9291H159.072L166.75 95.6947C166.993 96.6783 167.465 97.5903 168.128 98.3557C168.88 98.7652 169.738 98.937 170.589 98.8484V99.5383H161.041Z" fill="white"/>
<path d="M177.68 82.6856V85.9378C179.648 83.6711 181.519 82.6856 183.586 82.6856C184.324 82.6431 185.063 82.7524 185.757 83.0066C186.451 83.2609 187.086 83.6547 187.622 84.1639C188.169 84.759 188.59 85.4585 188.861 86.2205C189.132 86.9826 189.246 87.7914 189.197 88.5987V96.0887C189.11 96.8778 189.283 97.6736 189.689 98.3554C190.37 98.762 191.165 98.935 191.953 98.8482V99.5381H183.291V98.8482C184.064 98.8691 184.834 98.735 185.555 98.454C185.75 98.2659 185.897 98.0331 185.983 97.7756C186.069 97.5181 186.091 97.2436 186.047 96.9757V88.2045C186.089 87.7009 186.022 87.1942 185.853 86.7183C185.683 86.2424 185.413 85.8083 185.063 85.445C184.35 84.7533 183.397 84.3647 182.405 84.361C180.83 84.361 179.255 85.445 177.68 87.5146V95.4974C177.563 96.4261 177.772 97.3666 178.27 98.1583C178.949 98.5719 179.746 98.7454 180.534 98.6511V99.341H171.774V98.6511C173.053 98.6511 173.841 98.454 174.038 98.1583C174.234 97.8627 174.431 96.8771 174.431 95.4974V86.4306C174.479 86.0941 174.451 85.7511 174.349 85.427C174.247 85.1028 174.073 84.8059 173.841 84.5581C173.516 84.3274 173.148 84.1648 172.759 84.0801C172.37 83.9954 171.968 83.9904 171.577 84.0653V83.3754L176.695 82.7841H177.68" fill="white"/>
<path d="M207.108 96.3842V86.4304C206.475 85.618 205.71 84.9183 204.844 84.3608C204.074 83.891 203.186 83.6517 202.285 83.6709C201.56 83.6597 200.844 83.835 200.207 84.1802C199.569 84.5253 199.03 85.0286 198.643 85.6419C197.66 87.0584 197.144 88.7467 197.166 90.471C197.074 92.6776 197.772 94.8446 199.135 96.5813C199.761 97.3484 200.561 97.9544 201.469 98.3487C202.376 98.743 203.365 98.9142 204.352 98.848C204.681 98.8966 205.016 98.878 205.337 98.7933C205.659 98.7086 205.96 98.5596 206.222 98.3552C206.546 98.1488 206.802 97.8523 206.959 97.5021C207.117 97.152 207.168 96.7634 207.108 96.3842ZM209.569 70.4648H210.258V96.3842C210.176 97.0794 210.351 97.7808 210.75 98.3552C211.392 98.7691 212.159 98.9436 212.916 98.848V99.5379H203.269C200.74 99.6438 198.269 98.7602 196.379 97.0741C195.506 96.3205 194.814 95.38 194.354 94.3223C193.894 93.2645 193.677 92.1167 193.721 90.9638C193.663 88.7702 194.477 86.6434 195.985 85.0506C196.68 84.3091 197.518 83.717 198.449 83.3104C199.38 82.9037 200.383 82.6911 201.399 82.6854C203.373 82.7941 205.279 83.4416 206.911 84.5579V74.5055C207.012 73.7371 206.911 72.9555 206.616 72.2388C206.38 72.0197 206.099 71.8537 205.794 71.7517C205.488 71.6497 205.165 71.6142 204.844 71.6475H203.958V70.9576L209.569 70.4648Z" fill="white"/>
<path d="M220.499 82.6858V86.1352C221.593 85.1083 222.779 84.1846 224.042 83.3757C224.631 82.8851 225.349 82.5769 226.109 82.4887C226.655 82.4809 227.197 82.5813 227.704 82.7843C228.211 82.9873 228.673 83.2888 229.063 83.6713L227.881 86.6279C226.723 85.8817 225.41 85.4098 224.042 85.2482C222.694 85.4829 221.453 86.1383 220.499 87.1207V96.1875C220.497 96.8885 220.702 97.5744 221.089 98.1586C221.693 98.5739 222.43 98.7496 223.156 98.6513V99.3412H214.396V98.6513C215.184 98.7457 215.981 98.5722 216.66 98.1586C217.158 97.3669 217.367 96.4263 217.25 95.4977V86.4308C217.351 85.6273 217.14 84.8157 216.66 84.1641C215.804 83.7466 214.85 83.5759 213.903 83.6713V82.9815L219.613 82.4887H220.499" fill="white"/>
<path d="M234.082 88.6979H242.942V88.4023C243.007 87.7759 242.935 87.1429 242.731 86.5472C242.527 85.9516 242.196 85.4075 241.761 84.9529C241.356 84.528 240.866 84.194 240.323 83.9731C239.78 83.7523 239.196 83.6495 238.611 83.6717C238.018 83.6683 237.432 83.7893 236.889 84.027C236.347 84.2646 235.86 84.6137 235.461 85.0515C234.675 86.1168 234.198 87.3786 234.082 88.6979ZM246.485 95.3995V96.5821C245.599 97.6014 244.609 98.5261 243.532 99.3416C242.402 99.9125 241.156 100.216 239.89 100.229C238.727 100.279 237.565 100.087 236.48 99.6624C235.396 99.2381 234.411 98.5918 233.59 97.7648C232.759 96.9883 232.108 96.0388 231.682 94.9831C231.257 93.9274 231.068 92.7912 231.129 91.6545C231.14 89.3486 232.019 87.1317 233.59 85.4457C234.317 84.5929 235.224 83.9119 236.245 83.4518C237.266 82.9917 238.377 82.7639 239.496 82.7848C241.341 82.8691 243.106 83.5621 244.517 84.7558C245.199 85.2963 245.749 85.9858 246.124 86.7715C246.499 87.5572 246.69 88.4183 246.682 89.2892V89.5849H234.673V89.782C234.695 91.3897 234.96 92.9847 235.461 94.5125C235.935 95.767 236.798 96.8372 237.921 97.5677C238.884 98.3204 240.05 98.7667 241.268 98.8488C242.232 98.8686 243.184 98.6305 244.025 98.159C244.221 97.5676 245.206 96.7792 246.485 95.3995Z" fill="white"/>
<path d="M256.033 83.1789V83.8688C254.852 83.8688 254.261 84.1644 254.261 84.9529C254.36 85.4215 254.491 85.8826 254.655 86.3326L258.297 95.498L262.136 85.6427C261.924 85.0562 261.548 84.5431 261.053 84.1644C260.622 83.9629 260.151 83.8619 259.675 83.8688V83.1789H267.55V83.8688C266.172 83.8688 265.483 84.3615 265.483 85.0514C265.414 85.4149 265.448 85.7905 265.581 86.1355L269.224 95.3994L272.57 86.8254C272.849 86.2768 272.985 85.6665 272.964 85.0514C272.964 84.263 272.177 83.6717 270.799 83.6717V82.9818H277.295V83.6717C276.444 83.5831 275.586 83.7549 274.835 84.1644C274.245 84.9058 273.78 85.7379 273.456 86.6283L268.436 99.5386H267.747L262.53 86.6283L257.313 99.5386H256.525L250.816 85.4456C250.571 84.8778 250.154 84.4013 249.624 84.083C249.095 83.7648 248.479 83.6209 247.863 83.6717V82.9818H256.033" fill="white"/>
<path d="M290.287 82.6856V87.7117H289.5C289.417 86.5697 288.886 85.5069 288.023 84.7552C287.658 84.4008 287.227 84.1225 286.754 83.9364C286.281 83.7503 285.775 83.6601 285.267 83.6711C284.925 83.655 284.583 83.7078 284.262 83.8263C283.941 83.9448 283.646 84.1266 283.397 84.361C283.15 84.5368 282.956 84.7763 282.834 85.054C282.713 85.3317 282.669 85.6372 282.708 85.9378C282.672 86.2671 282.716 86.6001 282.836 86.9088C282.956 87.2175 283.148 87.4928 283.397 87.7117C284.288 88.4208 285.284 88.9861 286.35 89.3871C287.844 89.9684 289.19 90.8777 290.287 92.0481C291.049 92.9723 291.423 94.1559 291.331 95.3503C291.239 96.5448 290.689 97.6572 289.795 98.454C289.334 98.9604 288.771 99.3629 288.143 99.6348C287.516 99.9066 286.837 100.042 286.153 100.031C285.117 99.9465 284.111 99.6443 283.2 99.1439C282.803 98.9435 282.364 98.8421 281.92 98.8482C281.663 98.8615 281.418 98.9663 281.231 99.1439C281.045 99.4028 280.942 99.7121 280.936 100.031H280.05V94.5119H280.936C281.156 95.8388 281.815 97.0533 282.806 97.9612C283.731 98.767 284.928 99.1898 286.153 99.1439C286.936 99.1439 287.687 98.8324 288.241 98.2779C288.795 97.7234 289.106 96.9714 289.106 96.1873C289.121 95.4386 288.878 94.7075 288.417 94.1177C287.43 93.2861 286.295 92.6506 285.07 92.2452C283.686 91.6831 282.392 90.9193 281.231 89.9785C280.57 89.091 280.274 87.9842 280.402 86.8848C280.53 85.7854 281.073 84.7767 281.92 84.0653C282.891 83.1837 284.153 82.6923 285.464 82.6856C286.186 82.6463 286.904 82.8175 287.531 83.1783C287.897 83.3671 288.301 83.4683 288.712 83.474C289.303 83.474 289.5 83.3754 289.795 82.7841H290.287" fill="white"/>
<path d="M61.8213 110.97H62.3135V115.405H61.8213C61.7475 114.33 61.2938 113.317 60.5417 112.547C60.1827 112.19 59.7496 111.917 59.2733 111.747C58.7969 111.576 58.2889 111.513 57.7854 111.561C56.9088 111.486 56.0347 111.731 55.3245 112.251C54.839 112.766 54.5289 113.422 54.4386 114.124C54.4425 114.886 54.7223 115.621 55.2261 116.193C56.1253 117.233 57.2319 118.072 58.4745 118.657C60.4432 119.938 61.8213 120.727 62.3135 121.614C63.0011 122.447 63.3832 123.49 63.3963 124.57C63.3951 125.253 63.2547 125.929 62.9839 126.556C62.7132 127.183 62.3176 127.748 61.8213 128.217C61.4107 128.794 60.8622 129.258 60.2259 129.568C59.5897 129.878 58.886 130.023 58.1792 129.991C57.0953 129.96 56.0268 129.726 55.0292 129.301L53.9464 128.907C53.6511 128.907 53.4542 129.104 53.2573 129.695H52.7651V124.767H53.2573C53.2293 125.37 53.3272 125.972 53.5448 126.535C53.7625 127.098 54.095 127.609 54.5212 128.035C54.9474 128.462 55.4579 128.795 56.02 129.013C56.582 129.231 57.1833 129.329 57.7854 129.301C58.745 129.308 59.6799 128.996 60.4432 128.414C60.794 128.113 61.0669 127.732 61.2383 127.303C61.4098 126.874 61.4747 126.41 61.4276 125.95C61.3646 125.182 61.0536 124.456 60.5417 123.88C59.5222 122.865 58.3618 122.002 57.0964 121.318C56.0823 120.766 55.1538 120.068 54.3401 119.248C53.8343 118.759 53.4616 118.148 53.2573 117.475C53.0552 116.837 52.9555 116.172 52.962 115.504C52.915 114.862 53.0146 114.217 53.2534 113.62C53.4922 113.022 53.8638 112.487 54.3401 112.054C54.8216 111.588 55.3929 111.226 56.0191 110.988C56.6454 110.751 57.3134 110.644 57.9823 110.674C58.8579 110.685 59.7245 110.852 60.5417 111.167L61.4276 111.364L61.8213 111.167V110.97Z" fill="white"/>
<path d="M72.2521 120.431C72.1735 122.712 72.8292 124.958 74.1224 126.837C74.6418 127.509 75.2896 128.071 76.0281 128.49C76.7665 128.91 77.5809 129.177 78.4237 129.278C79.2666 129.379 80.1211 129.311 80.9374 129.078C81.7537 128.845 82.5156 128.452 83.1786 127.921L84.2614 126.837C85.5528 125.031 86.2105 122.848 86.1317 120.628C86.2247 118.315 85.5687 116.034 84.2614 114.124C83.6708 113.385 82.9217 112.789 82.0697 112.38C81.2177 111.97 80.2846 111.758 79.3396 111.759C78.3733 111.711 77.4101 111.902 76.5348 112.314C75.6594 112.727 74.8986 113.348 74.3193 114.124C72.7443 115.701 72.2521 117.77 72.2521 120.431ZM69.4959 120.431C69.417 119.163 69.6237 117.894 70.1008 116.717C70.5778 115.54 71.3131 114.485 72.2521 113.631C74.1373 111.84 76.6426 110.851 79.2411 110.872C80.5075 110.793 81.7753 111 82.951 111.477C84.1267 111.955 85.1801 112.691 86.0333 113.631C86.9311 114.517 87.6387 115.577 88.1127 116.746C88.5866 117.916 88.8169 119.17 88.7895 120.431C88.8414 121.696 88.6222 122.957 88.1468 124.13C87.6714 125.303 86.9508 126.36 86.0333 127.231C85.1187 128.145 84.0266 128.862 82.8245 129.336C81.6223 129.811 80.3358 130.034 79.0443 129.991C77.7755 130.047 76.509 129.838 75.3252 129.377C74.1415 128.917 73.0664 128.214 72.1684 127.315C71.2703 126.416 70.569 125.34 70.1089 124.155C69.6488 122.97 69.44 121.702 69.4959 120.431Z" fill="white"/>
<path d="M109.169 125.655H109.661L108.578 129.695H95.3877V129.104C95.688 129.143 95.9931 129.099 96.2704 128.977C96.5478 128.856 96.787 128.661 96.9627 128.414C97.3778 127.664 97.5498 126.803 97.4549 125.95V114.518C97.553 113.791 97.3776 113.054 96.9627 112.449C96.533 112.056 95.9691 111.845 95.3877 111.857V111.365H101.983V111.857C101.685 111.846 101.389 111.902 101.116 112.021C100.843 112.141 100.601 112.321 100.408 112.547C100.002 113.229 99.829 114.025 99.9158 114.814V127.034C99.8943 127.525 100.033 128.009 100.31 128.414C100.75 128.693 101.265 128.831 101.786 128.808H105.527C106.329 128.91 107.14 128.698 107.791 128.217C108.382 127.441 108.847 126.576 109.169 125.655Z" fill="white"/>
<path d="M120.487 111.365V111.857C119.798 111.857 119.011 112.054 118.912 112.547C118.478 113.22 118.271 114.015 118.322 114.814V126.148C118.271 126.947 118.478 127.741 118.912 128.414C119.106 128.641 119.348 128.821 119.62 128.94C119.893 129.06 120.19 129.116 120.487 129.104V129.695H113.793V129.104C114.679 129.104 115.27 128.907 115.368 128.414C115.467 127.921 115.762 127.232 115.762 126.148V114.814C115.767 114.041 115.633 113.273 115.368 112.547C114.949 112.127 114.386 111.881 113.793 111.857V111.365H120.487Z" fill="white"/>
<path d="M142.339 111.068V116.39H141.847C141.601 114.971 140.87 113.682 139.779 112.744C138.698 111.871 137.324 111.448 135.94 111.561C134.997 111.501 134.053 111.677 133.194 112.073C132.335 112.468 131.587 113.071 131.018 113.828C129.819 115.557 129.23 117.638 129.345 119.741C129.265 122.083 129.919 124.392 131.215 126.344C131.771 127.151 132.524 127.802 133.404 128.233C134.283 128.665 135.258 128.863 136.236 128.808C137.589 128.815 138.916 128.44 140.066 127.725C141.215 127.01 142.139 125.985 142.732 124.767L143.225 125.26C142.611 126.708 141.584 127.942 140.272 128.808C138.842 129.646 137.202 130.057 135.547 129.99C133.96 129.996 132.4 129.588 131.018 128.808C129.708 128.02 128.596 126.941 127.77 125.654C127.004 124.19 126.567 122.575 126.49 120.924C126.407 118.3 127.362 115.75 129.148 113.828C130.001 112.888 131.055 112.152 132.23 111.674C133.406 111.196 134.674 110.989 135.94 111.068C137.105 111.079 138.264 111.245 139.386 111.561L140.961 111.857C141.17 111.924 141.397 111.91 141.597 111.819C141.797 111.728 141.956 111.566 142.043 111.364H142.339" fill="white"/>
<path d="M154.742 111.365V111.857C154.053 111.857 153.364 112.054 153.167 112.547C152.761 113.229 152.588 114.025 152.675 114.814V126.148C152.588 126.937 152.761 127.732 153.167 128.414C153.36 128.641 153.602 128.821 153.875 128.94C154.148 129.06 154.444 129.116 154.742 129.104V129.695H148.146V129.104C149.032 129.104 149.525 128.907 149.721 128.414C149.918 127.921 150.017 127.232 150.017 126.148V114.814C150.009 114.049 149.91 113.288 149.721 112.547C149.302 112.127 148.739 111.881 148.146 111.857V111.365H154.742Z" fill="white"/>
<path d="M171.576 112.251H168.82V126.344C168.799 127.119 168.933 127.889 169.214 128.611C169.417 128.815 169.666 128.966 169.94 129.052C170.215 129.138 170.506 129.156 170.789 129.104V129.695H164.292V129.104C165.178 129.104 165.67 129.005 165.867 128.414C166.195 127.706 166.331 126.924 166.26 126.147V112.251H163.603C162.656 112.166 161.705 112.336 160.846 112.744C160.262 113.292 159.881 114.021 159.764 114.814H159.271V110.674H160.157C160.954 111.249 161.941 111.496 162.914 111.364H172.364C173.398 111.481 174.441 111.237 175.317 110.674H175.809V114.814H175.415C175.372 114.405 175.245 114.011 175.042 113.654C174.839 113.298 174.563 112.988 174.234 112.744C173.413 112.33 172.491 112.159 171.576 112.251Z" fill="white"/>
<path d="M183.488 120.431C183.409 122.712 184.065 124.957 185.358 126.837C185.877 127.509 186.525 128.071 187.263 128.49C188.002 128.909 188.816 129.177 189.659 129.278C190.502 129.379 191.356 129.311 192.173 129.078C192.989 128.845 193.751 128.451 194.414 127.921L195.497 126.837C196.718 124.942 197.367 122.735 197.367 120.48C197.367 118.225 196.718 116.018 195.497 114.123C194.906 113.385 194.157 112.789 193.305 112.379C192.453 111.97 191.52 111.758 190.575 111.758C189.609 111.711 188.646 111.901 187.77 112.314C186.895 112.726 186.134 113.348 185.555 114.123C183.98 115.7 183.488 117.77 183.488 120.431ZM180.633 120.431C180.6 119.159 180.837 117.896 181.33 116.723C181.822 115.551 182.557 114.497 183.488 113.631C185.348 111.863 187.814 110.876 190.378 110.871C191.645 110.785 192.915 110.988 194.092 111.467C195.269 111.945 196.322 112.685 197.17 113.631C198.101 114.497 198.836 115.551 199.328 116.723C199.82 117.896 200.058 119.159 200.025 120.431C200.085 121.705 199.859 122.977 199.365 124.154C198.872 125.33 198.122 126.382 197.17 127.231C195.291 128.998 192.809 129.981 190.23 129.981C187.652 129.981 185.17 128.998 183.291 127.231C181.568 125.388 180.616 122.955 180.633 120.431Z" fill="white"/>
<path d="M212.722 112.054H210.754V120.431H213.018C213.597 120.472 214.178 120.388 214.722 120.184C215.265 119.98 215.759 119.661 216.168 119.248C216.97 118.393 217.426 117.269 217.447 116.095C217.475 115.537 217.373 114.98 217.151 114.467C216.93 113.955 216.593 113.5 216.168 113.138C215.152 112.443 213.953 112.065 212.722 112.054ZM212.132 121.121H210.754V126.147C210.653 126.951 210.864 127.762 211.344 128.414C211.533 128.647 211.774 128.831 212.048 128.951C212.322 129.071 212.621 129.123 212.919 129.104V129.695H206.226V129.104C207.112 129.104 207.604 128.907 207.801 128.414C207.997 127.921 208.194 127.231 208.194 126.147V114.715C208.215 113.941 208.081 113.17 207.801 112.448C207.607 112.222 207.365 112.042 207.092 111.922C206.819 111.803 206.523 111.747 206.226 111.758V111.167H213.707C215.295 111.124 216.853 111.609 218.136 112.547C218.648 112.988 219.061 113.532 219.349 114.143C219.638 114.754 219.794 115.419 219.81 116.095C219.81 118.362 218.629 119.741 215.971 120.628C216.54 121.035 217.068 121.497 217.546 122.008C218.347 122.981 219.04 124.039 219.613 125.162C220.255 126.259 221.014 127.284 221.877 128.217C222.353 128.701 222.976 129.014 223.649 129.104V129.695H220.007C218.999 128.411 218.078 127.061 217.251 125.654C216.499 124.294 215.535 123.063 214.396 122.008C214.096 121.717 213.741 121.489 213.353 121.337C212.964 121.185 212.549 121.111 212.132 121.121Z" fill="white"/>
<path d="M238.12 111.069H238.612V115.405H238.12C238.043 114.35 237.628 113.348 236.938 112.547C236.212 111.951 235.316 111.6 234.378 111.547C233.44 111.494 232.51 111.741 231.721 112.252C231.447 112.481 231.225 112.767 231.072 113.09C230.919 113.414 230.838 113.766 230.835 114.124C230.821 114.903 231.063 115.665 231.524 116.292C232.453 117.273 233.554 118.075 234.773 118.658C236.742 119.939 238.12 120.727 238.612 121.614C239.299 122.447 239.682 123.49 239.695 124.571C239.669 125.948 239.112 127.262 238.139 128.236C237.166 129.21 235.853 129.769 234.478 129.794C233.388 129.813 232.309 129.577 231.328 129.104L230.245 128.809C229.949 128.809 229.753 128.907 229.556 129.498H229.063V124.571H229.556C229.554 125.193 229.675 125.809 229.912 126.384C230.148 126.959 230.495 127.481 230.934 127.922C231.35 128.324 231.845 128.636 232.386 128.84C232.928 129.043 233.506 129.133 234.084 129.104C235.043 129.112 235.978 128.8 236.742 128.217C237.084 127.932 237.353 127.568 237.525 127.156C237.696 126.744 237.765 126.297 237.726 125.852C237.72 125.06 237.442 124.295 236.938 123.684C235.865 122.689 234.675 121.828 233.395 121.121C232.396 120.545 231.471 119.85 230.638 119.052C230.133 118.562 229.76 117.952 229.556 117.278C229.362 116.673 229.262 116.041 229.26 115.405C229.248 114.089 229.741 112.819 230.638 111.858C231.64 110.961 232.938 110.469 234.281 110.478C235.168 110.473 236.044 110.676 236.84 111.069H238.12C237.923 111.562 237.923 111.365 238.12 111.069Z" fill="white"/>
</svg>
