<svg width="42" height="42" viewBox="0 0 42 42" fill="none" xmlns="http://www.w3.org/2000/svg">
<g id="email (7) 1" clip-path="url(#clip0_115_4403)">
<path id="Vector" d="M21 0C9.42055 0 0 9.42055 0 21C0 32.5794 9.42055 42 21 42C32.5794 42 42 32.5794 42 21C42 9.42055 32.5794 0 21 0ZM21 40.0312C10.5062 40.0312 1.96875 31.4938 1.96875 21C1.96875 10.5062 10.5062 1.96875 21 1.96875C31.4938 1.96875 40.0312 10.5062 40.0312 21C40.0312 31.4938 31.4938 40.0312 21 40.0312ZM30.8693 12.3457H11.1306C9.81036 12.3457 8.73625 13.4198 8.73625 14.74V27.26C8.73625 28.5803 9.81028 29.6544 11.1306 29.6544H30.8693C32.1896 29.6544 33.2637 28.5803 33.2637 27.26V14.74C33.2637 13.4198 32.1896 12.3457 30.8693 12.3457ZM29.3855 14.3145L21 20.9735L12.6144 14.3145H29.3855ZM30.8693 27.6855H11.1306C10.896 27.6855 10.705 27.4947 10.705 27.26V15.3121L20.3878 23.0013C20.567 23.1436 20.7835 23.2148 20.9999 23.2148C21.2163 23.2148 21.4329 23.1437 21.612 23.0013L31.2949 15.3121V27.26C31.2949 27.4947 31.104 27.6855 30.8693 27.6855Z" fill="white"/>
</g>
<defs>
<clipPath id="clip0_115_4403">
<rect width="42" height="42" fill="white"/>
</clipPath>
</defs>
</svg>
