<svg width="21" height="21" viewBox="0 0 21 21" fill="none" xmlns="http://www.w3.org/2000/svg">
<g clip-path="url(#clip0_1637_16)">
<path d="M10.5479 0C10.5423 0.00562653 10.531 0.00562653 10.5141 0.00562653C4.82009 0.00562653 0.189453 4.63626 0.189453 10.3303C0.189453 12.6541 0.982793 14.9103 2.43444 16.7277L0.932155 20.2161C0.808371 20.5031 0.943408 20.835 1.22473 20.9532C1.32601 20.9982 1.43854 21.0095 1.54545 20.9926L7.05382 20.0248C8.15662 20.4243 9.31568 20.6269 10.486 20.6212C16.18 20.6212 20.8107 15.9906 20.8107 10.2965C20.8219 4.61938 16.2251 0.00562653 10.5479 0ZM10.4916 19.5015C9.40571 19.5015 8.33104 19.3046 7.31264 18.922C7.21699 18.8826 7.11571 18.877 7.01443 18.8939L2.37817 19.7041L3.60476 16.8515C3.68915 16.6545 3.65539 16.4238 3.51473 16.2607C2.8508 15.4898 2.32191 14.6121 1.95056 13.6612C1.53419 12.5978 1.32039 11.4669 1.32039 10.3247C1.32039 5.24955 5.45026 1.12531 10.5198 1.12531C15.578 1.11405 19.6854 5.20454 19.691 10.2628C19.691 10.274 19.691 10.2853 19.691 10.2965C19.691 15.3773 15.5611 19.5015 10.4916 19.5015Z" fill="black"/>
<path d="M10.0526 8.25391H7.01431C6.70485 8.25391 6.45166 8.5071 6.45166 8.81656C6.45166 9.12602 6.70485 9.37921 7.01431 9.37921H10.0526C10.3621 9.37921 10.6153 9.12602 10.6153 8.81656C10.6153 8.5071 10.3621 8.25391 10.0526 8.25391Z" fill="black"/>
<path d="M13.9912 11.0674H7.01431C6.70485 11.0674 6.45166 11.3206 6.45166 11.63C6.45166 11.9395 6.70485 12.1927 7.01431 12.1927H13.9912C14.3007 12.1927 14.5539 11.9395 14.5539 11.63C14.5539 11.3206 14.3007 11.0674 13.9912 11.0674Z" fill="black"/>
</g>
<defs>
<clipPath id="clip0_1637_16">
<rect width="21" height="21" fill="white"/>
</clipPath>
</defs>
</svg>
