<svg width="29" height="29" viewBox="0 0 29 29" fill="none" xmlns="http://www.w3.org/2000/svg">
<path d="M14.4999 3.23242C14.3887 3.23244 14.2799 3.26574 14.1877 3.32805C14.0955 3.39036 14.0241 3.47882 13.9826 3.58207L11.0503 10.8833L3.20123 11.4148C3.09007 11.4222 2.98368 11.4628 2.89577 11.5312C2.80786 11.5997 2.74247 11.6929 2.70801 11.7988C2.67355 11.9048 2.67162 12.0186 2.70245 12.1257C2.73328 12.2327 2.79546 12.3281 2.88099 12.3995L8.91867 17.4438L6.99942 25.0739C6.9721 25.182 6.97777 25.2957 7.01569 25.4005C7.05362 25.5053 7.12206 25.5963 7.2122 25.6618C7.30233 25.7273 7.41003 25.7643 7.5214 25.7681C7.63277 25.7718 7.74271 25.7421 7.83704 25.6828L14.4999 21.499L21.1639 25.6828C21.2583 25.7421 21.3682 25.7718 21.4796 25.7681C21.5909 25.7643 21.6986 25.7273 21.7888 25.6618C21.8789 25.5963 21.9474 25.5053 21.9853 25.4005C22.0232 25.2957 22.0289 25.182 22.0016 25.0739L20.0812 17.4438L26.1189 12.3995C26.2044 12.3282 26.2666 12.2329 26.2974 12.1259C26.3283 12.019 26.3265 11.9052 26.2921 11.7993C26.2578 11.6934 26.1926 11.6002 26.1048 11.5316C26.0171 11.4631 25.9108 11.4224 25.7997 11.4148L17.9496 10.8833L15.0173 3.58207C14.9758 3.47882 14.9044 3.39036 14.8122 3.32805C14.72 3.26574 14.6112 3.23244 14.4999 3.23242ZM14.4999 5.28564L17.0455 11.6229C17.0846 11.7201 17.1502 11.8044 17.235 11.8661C17.3198 11.9277 17.4202 11.9642 17.5248 11.9714L24.338 12.4343L19.0976 16.812C19.0172 16.8793 18.9573 16.968 18.9249 17.0678C18.8925 17.1676 18.889 17.2745 18.9146 17.3762L20.5801 23.9988L14.7973 20.3684C14.7084 20.3125 14.6055 20.2828 14.5005 20.2828C14.3955 20.2828 14.2926 20.3125 14.2037 20.3684L8.41979 23.9988L10.0863 17.3762C10.112 17.2745 10.1084 17.1676 10.0761 17.0678C10.0437 16.968 9.98382 16.8793 9.90333 16.812L4.66299 12.4343L11.4751 11.9714C11.5799 11.9644 11.6805 11.928 11.7655 11.8663C11.8505 11.8047 11.9163 11.7203 11.9555 11.6229L14.4999 5.28564Z" fill="black"/>
</svg>
