<svg width="140" height="46" viewBox="0 0 140 46" fill="none" xmlns="http://www.w3.org/2000/svg">
<path d="M59.801 24.2077C59.801 30.8258 54.6237 35.7025 48.2699 35.7025C41.916 35.7025 36.7388 30.8258 36.7388 24.2077C36.7388 17.543 41.916 12.7129 48.2699 12.7129C54.6237 12.7129 59.801 17.543 59.801 24.2077ZM54.7531 24.2077C54.7531 20.072 51.7525 17.2425 48.2699 17.2425C44.7873 17.2425 41.7866 20.0722 41.7866 24.2077C41.7866 28.302 44.7873 31.1729 48.2699 31.1729C51.7525 31.1732 54.7531 28.2968 54.7531 24.2077Z" fill="#1B2946"/>
<path d="M84.6772 24.2077C84.6772 30.8258 79.5 35.7025 73.1461 35.7025C66.7922 35.7025 61.615 30.8258 61.615 24.2077C61.615 17.5482 66.7922 12.7129 73.1461 12.7129C79.4997 12.7129 84.6772 17.543 84.6772 24.2077ZM79.6293 24.2077C79.6293 20.072 76.6287 17.2425 73.1461 17.2425C69.6635 17.2425 66.6629 20.0722 66.6629 24.2077C66.6629 28.302 69.6635 31.1729 73.1461 31.1729C76.6287 31.1732 79.6293 28.2968 79.6293 24.2077Z" fill="#1B2946"/>
<path d="M108.517 13.4075V34.0442C108.517 42.5332 103.51 46.0002 97.5921 46.0002C92.021 46.0002 88.6677 42.2739 87.4032 39.2266L91.798 37.3971C92.5805 39.2681 94.4981 41.4758 97.5869 41.4758C101.375 41.4758 103.723 39.1384 103.723 34.7385V33.0854H103.547C102.417 34.4795 100.24 35.6973 97.4935 35.6973C91.7461 35.6973 86.4807 30.6909 86.4807 24.2492C86.4807 17.7608 91.7461 12.7129 97.4935 12.7129C100.235 12.7129 102.412 13.9307 103.547 15.2834H103.723V13.4124H108.517V13.4075ZM104.08 24.2492C104.08 20.2016 101.38 17.2425 97.9444 17.2425C94.4618 17.2425 91.5439 20.2016 91.5439 24.2492C91.5439 28.2553 94.4615 31.1729 97.9444 31.1729C101.38 31.1732 104.08 28.2553 104.08 24.2492Z" fill="#1B2946"/>
<path d="M116.42 1.31152V34.9979H111.497V1.31152H116.42Z" fill="#1B2946"/>
<path d="M135.605 27.9914L139.523 30.6033C138.259 32.4743 135.212 35.6976 129.946 35.6976C123.416 35.6976 118.54 30.6497 118.54 24.2028C118.54 17.367 123.458 12.708 129.381 12.708C135.346 12.708 138.264 17.4551 139.218 20.0204L139.741 21.3264L124.375 27.6906C125.551 29.9969 127.381 31.1732 129.946 31.1732C132.517 31.1735 134.299 29.9087 135.605 27.9914ZM123.546 23.8556L133.818 19.5905C133.253 18.1549 131.553 17.1549 129.553 17.1549C126.987 17.1546 123.416 19.4194 123.546 23.8556Z" fill="#1B2946"/>
<path d="M18.1025 21.2172V16.3404H34.5363C34.697 17.1904 34.7797 18.1958 34.7797 19.284C34.7797 22.9429 33.7794 27.4671 30.5561 30.6907C27.4207 33.9558 23.4146 35.6971 18.1077 35.6971C8.27121 35.6971 0 27.6849 0 17.8487C0 8.01247 8.27121 0 18.1077 0C23.5494 0 27.4258 2.13515 30.3383 4.91824L26.8972 8.35937C24.8087 6.40026 21.9789 4.87675 18.1025 4.87675C10.9195 4.87675 5.3017 10.6656 5.3017 17.8487C5.3017 25.0317 10.9195 30.8206 18.1025 30.8206C22.7614 30.8206 25.4149 28.9496 27.115 27.2498C28.4936 25.8712 29.4005 23.902 29.7581 21.2123L18.1025 21.2172Z" fill="#1B2946"/>
</svg>
