<svg width="87" height="87" viewBox="0 0 87 87" fill="none" xmlns="http://www.w3.org/2000/svg">
<g clip-path="url(#clip0_115_4459)">
<path d="M0 43.5C0 19.5141 19.5141 0 43.5 0C53.1872 0 62.3562 3.11667 70.0159 9.0132L59.9074 22.1444C55.1713 18.4987 49.4976 16.5714 43.5 16.5714C28.6516 16.5714 16.5714 28.6516 16.5714 43.5C16.5714 58.3484 28.6516 70.4286 43.5 70.4286C55.4592 70.4286 65.622 62.5932 69.1244 51.7857H43.5V35.2143H87V43.5C87 67.4859 67.4859 87 43.5 87C19.5141 87 0 67.4859 0 43.5Z" fill="#1B2946"/>
</g>
<defs>
<clipPath id="clip0_115_4459">
<rect width="87" height="87" fill="white"/>
</clipPath>
</defs>
</svg>
